Coordinates
version=1
nRows=17
nColumns=40
inDegrees=yes

Units are S.I. units (second, meters, Newtons, ...)
If the header above contains a line with 'inDegrees', this indicates whether rotational values are in degrees (yes) or radians (no).

endheader
time	pelvis_tilt	pelvis_list	pelvis_rotation	pelvis_tx	pelvis_ty	pelvis_tz	hip_flexion_r	hip_adduction_r	hip_rotation_r	knee_angle_r	knee_angle_r_beta	ankle_angle_r	subtalar_angle_r	mtp_angle_r	hip_flexion_l	hip_adduction_l	hip_rotation_l	knee_angle_l	knee_angle_l_beta	ankle_angle_l	subtalar_angle_l	mtp_angle_l	lumbar_extension	lumbar_bending	lumbar_rotation	arm_flex_r	arm_add_r	arm_rot_r	elbow_flex_r	pro_sup_r	wrist_flex_r	wrist_dev_r	arm_flex_l	arm_add_l	arm_rot_l	elbow_flex_l	pro_sup_l	wrist_flex_l	wrist_dev_l
      3.80000000	     18.05001933	     -8.50725248	     -6.64680906	     -0.32932082	      0.84851046	     -1.02925618	     38.93711512	      6.96421530	    -10.51260444	      4.74972292	      0.08289830	     -1.61330198	      0.00000000	      0.00000000	     23.15374005	    -12.34846163	    -11.08759035	     83.49281463	      1.45722452	     29.79887681	      0.00000000	      0.00000000	    -31.40293022	     -1.52467917	     10.08047103	     89.89970530	    -16.82865662	     35.80720024	     34.81834605	     85.75525630	      0.00000000	      0.00000000	     89.94059326	    -19.36520819	     38.56652061	     47.87918866	     78.08320401	      0.00000000	      0.00000000
      3.80500000	     18.11441959	     -8.49545491	     -6.66050068	     -0.32931794	      0.84817914	     -1.02930152	     38.91820427	      6.99608885	    -10.57142574	      4.69882820	      0.08201002	     -1.34594821	      0.00000000	      0.00000000	     23.11278868	    -12.32228722	    -11.11355360	     83.56720288	      1.45852284	     29.81617690	      0.00000000	      0.00000000	    -31.49486264	     -1.55487705	     10.12195270	     89.90055046	    -16.83852304	     35.81656715	     34.80072990	     85.23794584	      0.00000000	      0.00000000	     89.94074428	    -19.29739082	     38.24058527	     47.82569968	     81.89658145	      0.00000000	      0.00000000
      3.81000000	     18.19776896	     -8.43855755	     -6.66978685	     -0.32934705	      0.84804516	     -1.02936720	     38.88839278	      6.97736601	    -10.60869176	      4.68684497	      0.08180088	     -1.01501005	      0.00000000	      0.00000000	     23.02121737	    -12.23628490	    -11.13860179	     83.56258575	      1.45844225	     29.85542364	      0.00000000	      0.00000000	    -31.60313311	     -1.62277621	     10.15055518	     89.90154483	    -16.83035122	     35.63573932	     34.81862776	     85.33973899	      0.00000000	      0.00000000	     89.94092742	    -19.23138371	     38.15617653	     47.83938861	     81.44991942	      0.00000000	      0.00000000
      3.81500000	     18.10851392	     -8.53138343	     -6.72403699	     -0.32969470	      0.84767438	     -1.02933477	     39.07452183	      7.08426601	    -10.58766543	      4.72624717	      0.08248857	     -1.59253224	      0.00000000	      0.00000000	     23.17414924	    -12.34564040	    -11.09690131	     83.63466290	      1.45970024	     29.88360546	      0.00000000	      0.00000000	    -31.58777224	     -1.55878598	     10.28329340	     89.90208792	    -16.88026512	     35.53820170	     34.90862241	     85.22623593	      0.00000000	      0.00000000	     89.94118457	    -19.16294388	     38.02346385	     47.88191456	     81.86012811	      0.00000000	      0.00000000
      3.82000000	     18.10040129	     -8.51505632	     -6.71322666	     -0.32977080	      0.84740121	     -1.02945242	     39.13882908	      7.07867755	    -10.59190048	      4.71246192	      0.08224798	     -1.41541810	      0.00000000	      0.00000000	     23.23798657	    -12.28898748	    -11.05396019	     83.69844714	      1.46081348	     29.88503733	      0.00000000	      0.00000000	    -31.61205567	     -1.56813702	     10.28890157	     89.90276783	    -16.88658347	     35.45616909	     34.89021450	     85.27755297	      0.00000000	      0.00000000	     89.94130581	    -19.11466922	     37.95972807	     47.88036769	     81.73086309	      0.00000000	      0.00000000
      3.82500000	     18.13834738	     -8.49803875	     -6.70774833	     -0.32984939	      0.84716479	     -1.02951358	     39.15610487	      7.08576780	    -10.61891660	      4.71337733	      0.08226395	     -1.18250752	      0.00000000	      0.00000000	     23.23245286	    -12.23771919	    -11.02887868	     83.74668297	      1.46165536	     29.89492763	      0.00000000	      0.00000000	    -31.68638205	     -1.58735182	     10.30919053	     89.90334068	    -16.89243566	     35.33858537	     34.93438542	     85.24802621	      0.00000000	      0.00000000	     89.94145304	    -19.08234931	     37.90712426	     47.89245436	     81.87547599	      0.00000000	      0.00000000
      3.83000000	     18.07224070	     -8.54701910	     -6.73729265	     -0.33006190	      0.84677819	     -1.02950341	     39.32061369	      7.15535981	    -10.67375561	      4.76829161	      0.08322239	     -1.39151862	      0.00000000	      0.00000000	     23.36824639	    -12.28096179	    -10.97449898	     83.83045026	      1.46311737	     29.91947766	      0.00000000	      0.00000000	    -31.67384420	     -1.54864171	     10.40208659	     89.90424610	    -16.89952713	     35.17726443	     34.97469329	     85.24658534	      0.00000000	      0.00000000	     89.94161947	    -19.01277388	     37.83427360	     47.88649786	     81.84704542	      0.00000000	      0.00000000
      3.83500000	     17.98321897	     -8.57290282	     -6.72216976	     -0.33020334	      0.84637201	     -1.02959078	     39.49922787	      7.18393140	    -10.79967911	      4.80372040	      0.08384074	     -1.38805307	      0.00000000	      0.00000000	     23.54070131	    -12.26540943	    -10.86904063	     83.90865646	      1.46448233	     29.95803528	      0.00000000	      0.00000000	    -31.63638728	     -1.50157318	     10.41946725	     89.90457666	    -16.90623387	     35.03406583	     34.98725194	     85.63935592	      0.00000000	      0.00000000	     89.94176374	    -19.00091572	     37.97210413	     47.98014680	     78.86019535	      0.00000000	      0.00000000
      3.84000000	     17.95582146	     -8.57435232	     -6.73175358	     -0.33035115	      0.84604103	     -1.02969594	     39.57099152	      7.18493135	    -10.53787890	      4.80930904	      0.08393828	     -1.48854390	      0.00000000	      0.00000000	     23.61799874	    -12.23393391	    -10.83725868	     83.97085138	      1.46556783	     30.03307624	      0.00000000	      0.00000000	    -31.64989976	     -1.50133689	     10.47458750	     89.90531837	    -16.94826081	     34.98184143	     35.06154976	     85.18360737	      0.00000000	      0.00000000	     89.94183786	    -18.94421958	     37.73134796	     47.97066547	     81.88385582	      0.00000000	      0.00000000
      3.84500000	     17.95545692	     -8.53849492	     -6.71776970	     -0.33043485	      0.84581128	     -1.02985396	     39.61609330	      7.17215490	    -10.50660591	      4.76702190	      0.08320023	     -1.30606607	      0.00000000	      0.00000000	     23.66187506	    -12.13596574	    -10.78237415	     84.00065493	      1.46608800	     30.03867631	      0.00000000	      0.00000000	    -31.68078641	     -1.52518927	     10.50023396	     89.90555903	    -16.99975914	     34.92187844	     35.10097238	     85.25641586	      0.00000000	      0.00000000	     89.94193840	    -18.83274037	     37.63779289	     47.91857644	     81.57860947	      0.00000000	      0.00000000
      3.85000000	     17.94735412	     -8.49998183	     -6.68463866	     -0.33048976	      0.84554877	     -1.02996978	     39.66850194	      7.14967130	    -10.57101995	      4.72753322	      0.08251102	     -1.01463122	      0.00000000	      0.00000000	     23.72661817	    -12.04625684	    -10.71956245	     84.04707990	      1.46689827	     30.03885215	      0.00000000	      0.00000000	    -31.70779232	     -1.53887754	     10.46720602	     89.90579404	    -16.95583937	     34.78739014	     35.06034435	     85.21893417	      0.00000000	      0.00000000	     89.94211481	    -18.82612749	     37.56364060	     47.93799778	     81.66757480	      0.00000000	      0.00000000
      3.85500000	     17.90774496	     -8.52955712	     -6.68142577	     -0.33071532	      0.84525137	     -1.03004715	     39.76239847	      7.18114411	    -10.53455515	      4.71072970	      0.08221774	     -1.26146431	      0.00000000	      0.00000000	     23.83671812	    -12.04320387	    -10.65079839	     84.11216496	      1.46803422	     30.06129742	      0.00000000	      0.00000000	    -31.71587053	     -1.50831140	     10.51690870	     89.90658829	    -17.00336787	     34.72403236	     35.13921585	     85.18867631	      0.00000000	      0.00000000	     89.94213649	    -18.74855864	     37.46664509	     47.92242745	     81.78095095	      0.00000000	      0.00000000
      3.86000000	     17.90789630	     -8.52224479	     -6.68856503	     -0.33083682	      0.84501016	     -1.03015485	     39.81036364	      7.19293597	    -10.47897520	      4.69721713	      0.08198190	     -1.36277691	      0.00000000	      0.00000000	     23.87720725	    -11.99845251	    -10.60227667	     84.17050585	      1.46905246	     30.06660529	      0.00000000	      0.00000000	    -31.75914805	     -1.51141207	     10.54923497	     89.90744660	    -17.01616488	     34.56556431	     35.18152086	     85.64553092	      0.00000000	      0.00000000	     89.94225624	    -18.71432123	     37.55104616	     47.97666636	     79.18676304	      0.00000000	      0.00000000
      3.86500000	     17.87957876	     -8.55962983	     -6.68366441	     -0.33098095	      0.84482686	     -1.03022188	     39.86774369	      7.24580065	    -10.50771140	      4.65018764	      0.08116109	     -1.44164393	      0.00000000	      0.00000000	     23.95439046	    -12.00342728	    -10.53505351	     84.21367482	      1.46980590	     30.07025314	      0.00000000	      0.00000000	    -31.78325278	     -1.47725058	     10.60626109	     89.90770166	    -17.06262548	     34.59325369	     35.24236922	     85.18905463	      0.00000000	      0.00000000	     89.94234575	    -18.63938827	     37.34873312	     47.91490712	     81.75193661	      0.00000000	      0.00000000
      3.87000000	     17.88424280	     -8.55169766	     -6.66285177	     -0.33111006	      0.84461673	     -1.03030355	     39.87947816	      7.25937332	    -10.46654296	      4.59069906	      0.08012281	     -1.33477252	      0.00000000	      0.00000000	     23.99650788	    -11.96133980	    -10.49063511	     84.25808009	      1.47058092	     30.09984926	      0.00000000	      0.00000000	    -31.82712097	     -1.47811849	     10.61870200	     89.90849555	    -17.07384812	     34.51957821	     35.26734052	     85.52928529	      0.00000000	      0.00000000	     89.94249047	    -18.61127381	     37.42903374	     47.99636348	     79.40419580	      0.00000000	      0.00000000
      3.87500000	     17.83500373	     -8.60125887	     -6.73937241	     -0.33149319	      0.84454174	     -1.03021480	     39.98466797	      7.35894962	    -10.41159516	      4.61850910	      0.08060819	     -1.70741792	      0.00000000	      0.00000000	     24.09487641	    -12.04266894	    -10.51567841	     84.30718090	      1.47143789	     29.99841527	      0.00000000	      0.00000000	    -31.85364040	     -1.47417763	     10.74861354	     89.90908174	    -17.09036377	     34.41717579	     35.32609126	     85.25881668	      0.00000000	      0.00000000	     89.94258770	    -18.55848748	     37.25313332	     47.95306097	     81.58802351	      0.00000000	      0.00000000
      3.88000000	     17.87904357	     -8.51745606	     -6.69338445	     -0.33157896	      0.84440577	     -1.03038971	     39.94146191	      7.28493762	    -10.26745395	      4.51481106	      0.07879832	     -1.56971999	      0.00000000	      0.00000000	     24.07221120	    -11.88595157	    -10.46698284	     84.28154373	      1.47099044	     30.02678111	      0.00000000	      0.00000000	    -31.93415736	     -1.53494564	     10.70629689	     89.90935532	    -17.10633555	     34.37243126	     35.34362484	     85.23704000	      0.00000000	      0.00000000	     89.94271429	    -18.51361934	     37.17697048	     47.97602431	     81.61441353	      0.00000000	      0.00000000
